<?xml version="1.0" encoding="utf-8"?>
<!-- Generator: Adobe Illustrator 16.0.0, SVG Export Plug-In . SVG Version: 6.00 Build 0)  -->
<!DOCTYPE svg PUBLIC "-//W3C//DTD SVG 1.1//EN" "http://www.w3.org/Graphics/SVG/1.1/DTD/svg11.dtd">
<svg version="1.1" id="Layer_1" xmlns="http://www.w3.org/2000/svg" xmlns:xlink="http://www.w3.org/1999/xlink" x="0px" y="0px"
	 width="1920px" height="3000px" viewBox="0 0 1920 3000" enable-background="new 0 0 1920 3000" xml:space="preserve">
<title></title>
<g id="Layer_61">
	<path fill="#FFFFFF" d="M600,1740c-28.966,0.584-54.212-19.612-60-48L399.6,984.6C382.739,900.542,308.933,840.04,223.2,840H120
		c-33.137,0-60-26.863-60-60s26.863-60,60-60h103.2c142.58-0.029,265.483,100.3,294,240L660,1668
		c7.147,32.357-13.289,64.382-45.646,71.529c-0.781,0.173-1.566,0.329-2.354,0.471H600z"/>
	<path fill="#FFFFFF" d="M660,2160H548.4c-137.186-0.85-247.707-112.748-246.857-249.934
		c0.788-127.17,97.496-233.206,224.057-245.666L1630.2,1564.2l96.6-484.2H480c-33.137,0-60-26.863-60-60s26.863-60,60-60h1320
		c17.945,0.119,34.895,8.264,46.2,22.2c11.879,13.667,16.95,31.968,13.8,49.8l-120,600c-5.205,26.061-26.934,45.592-53.4,48
		L536.4,1784.4c-70.582,3.313-125.114,63.218-121.801,133.8c3.314,70.582,63.219,125.113,133.801,121.8l0,0H660
		c33.137,0,60,26.863,60,60S693.137,2160,660,2160z"/>
	<path fill="#FFFFFF" d="M1560,2340c-132.549,0-240-107.451-240-240s107.451-240,240-240s240,107.451,240,240
		S1692.549,2340,1560,2340z M1560,1980c-66.274,0-120,53.726-120,120s53.726,120,120,120s120-53.726,120-120
		S1626.274,1980,1560,1980z"/>
	<path fill="#FFFFFF" d="M840,2340c-132.549,0-240-107.451-240-240s107.451-240,240-240s240,107.451,240,240S972.549,2340,840,2340z
		 M840,1980c-66.274,0-120,53.726-120,120s53.726,120,120,120s120-53.726,120-120S906.274,1980,840,1980z"/>
	<path fill="#FFFFFF" d="M1380,2160h-360c-33.137,0-60-26.863-60-60s26.863-60,60-60h360c33.137,0,60,26.863,60,60
		S1413.137,2160,1380,2160z"/>
</g>
</svg>
