<?xml version="1.0" encoding="utf-8"?>
<!-- Generator: Adobe Illustrator 16.0.0, SVG Export Plug-In . SVG Version: 6.00 Build 0)  -->
<!DOCTYPE svg PUBLIC "-//W3C//DTD SVG 1.1//EN" "http://www.w3.org/Graphics/SVG/1.1/DTD/svg11.dtd">
<svg version="1.1" id="Layer_1" xmlns="http://www.w3.org/2000/svg" xmlns:xlink="http://www.w3.org/1999/xlink" x="0px" y="0px"
	 width="32px" height="32px" viewBox="0 0 32 32" enable-background="new 0 0 32 32" xml:space="preserve">
<g>
	<g id="XMLID_1_">
		<g>
			<path fill="#FFFFFF" d="M32,2v28c0,1.1-0.9,2-2,2h-8V20h4l1-5h-5v-2c0-2,1-3,3-3h2V5c-1,0-2.24,0-4,0c-3.67,0-6,2.88-6,7v3h-4v5
				h4v12H2c-1.1,0-2-0.9-2-2V2c0-1.11,0.9-2,2-2h28C31.1,0,32,0.89,32,2z"/>
			<path fill="#34A5AB" d="M27,5v5h-2c-2,0-3,1-3,3v2h5l-1,5h-4v12h-5V20h-4v-5h4v-3c0-4.12,2.33-7,6-7C24.76,5,26,5,27,5z"/>
		</g>
		<g>
		</g>
	</g>
</g>
</svg>
