<?xml version="1.0" encoding="utf-8"?>
<!-- Generator: Adobe Illustrator 16.0.0, SVG Export Plug-In . SVG Version: 6.00 Build 0)  -->
<!DOCTYPE svg PUBLIC "-//W3C//DTD SVG 1.1//EN" "http://www.w3.org/Graphics/SVG/1.1/DTD/svg11.dtd">
<svg version="1.1" id="Layer_1" xmlns="http://www.w3.org/2000/svg" xmlns:xlink="http://www.w3.org/1999/xlink" x="0px" y="0px"
	 width="1920px" height="1781.645px" viewBox="0 765.009 1920 1781.645" enable-background="new 0 765.009 1920 1781.645"
	 xml:space="preserve">
<title></title>
<g id="Layer_54">
	<g id="XMLID_1_">
		<g>
			<path fill="#FFFFFF" d="M1666.62,976.172c216.6,166.8,256.97,477.61,90.17,694.2c-12.84,16.671-26.72,32.5-41.57,47.4l-630,630.6
				c-33.87,33.91-79.87,52.921-127.8,52.801c-47.93,0.12-93.93-18.891-127.8-52.801l-618-618c-98.62-99.689-153.09-234.79-151.2-375
				c1.98-267.08,220.09-481.99,487.16-480.01c0.42,0,0.83,0.01,1.24,0.01c130.81-1.32,256.58,50.42,348.6,143.4l60,60l49.2-49.2
				c97.96-100.55,228.939-152.13,360.75-152.13C1471.96,877.442,1577.07,909.922,1666.62,976.172z M1631.22,1632.572
				c74.87-76.45,113.51-181.24,106.2-288c-6.48-107.9-59.73-207.6-145.8-273c-154.38-113.82-369.2-95.6-502.2,42.6l-89.4,91.8
				c-23.33,23.53-61.32,23.68-84.85,0.35c-0.12-0.12-0.23-0.23-0.35-0.35l-102-102c-70.25-69.64-165.08-108.87-264-109.2h-2.4
				c-95.37-0.1-187.03,36.91-255.6,103.2c-70.63,67.96-110.5,161.78-110.4,259.8c-1.06,107.78,41.07,211.5,117,288l618,618
				c23.34,23.53,61.33,23.68,84.85,0.35c0.12-0.119,0.23-0.229,0.351-0.35L1631.22,1632.572z"/>
			<path fill="#FFFFFF" d="M1737.42,1344.572c7.31,106.76-31.33,211.55-106.2,288l-630.6,631.2c-0.12,0.12-0.23,0.23-0.351,0.35
				c-23.52,23.33-61.51,23.181-84.85-0.35l-618-618c-75.93-76.5-118.06-180.22-117-288c-0.1-98.02,39.77-191.84,110.4-259.8
				c68.57-66.29,160.23-103.3,255.6-103.2h2.4c98.92,0.33,193.75,39.56,264,109.2l102,102c0.12,0.12,0.23,0.23,0.35,0.35
				c23.53,23.33,61.52,23.18,84.85-0.35l89.4-91.8c133-138.2,347.82-156.42,502.2-42.6
				C1677.689,1136.973,1730.939,1236.672,1737.42,1344.572z"/>
		</g>
		<g>
		</g>
	</g>
</g>
</svg>
