<?xml version="1.0" encoding="utf-8"?>
<!-- Generator: Adobe Illustrator 16.0.0, SVG Export Plug-In . SVG Version: 6.00 Build 0)  -->
<!DOCTYPE svg PUBLIC "-//W3C//DTD SVG 1.1//EN" "http://www.w3.org/Graphics/SVG/1.1/DTD/svg11.dtd">
<svg version="1.1" id="Layer_1" xmlns:serif="http://www.serif.com/"
	 xmlns="http://www.w3.org/2000/svg" xmlns:xlink="http://www.w3.org/1999/xlink" x="0px" y="0px" width="4251.971px"
	 height="4251.969px" viewBox="0 0 4251.971 4251.969" enable-background="new 0 0 4251.971 4251.969" xml:space="preserve">
<g id="XMLID_1_">
	<g>
		<path fill="#34A5AB" d="M2125.985,1379.685c412.17,0,746.29,334.13,746.29,746.3s-334.12,746.29-746.29,746.29
			s-746.29-334.12-746.29-746.29S1713.815,1379.685,2125.985,1379.685z M2610.415,2125.985c0-267.55-216.88-484.43-484.43-484.43
			s-484.43,216.88-484.43,484.43s216.88,484.43,484.43,484.43S2610.415,2393.535,2610.415,2125.985z"/>
		<path fill="#34A5AB" d="M3570.556,1526.785c7.069,155.01,8.739,204.51,8.739,599.2c0,394.69-1.67,444.19-8.739,599.2
			c-7.061,154.689-31.63,260.33-67.551,352.78c-37.14,95.56-86.84,176.609-167.63,257.409c-80.8,80.79-161.85,130.49-257.409,167.63
			c-92.45,35.921-198.091,60.49-352.78,67.551c-155.01,7.069-204.51,8.739-599.2,8.739c-394.69,0-444.19-1.67-599.2-8.739
			c-154.69-7.061-260.33-31.63-352.78-67.551c-95.57-37.14-176.61-86.84-257.41-167.63c-80.79-80.8-130.49-161.85-167.63-257.409
			c-35.92-92.45-60.49-198.091-67.55-352.78c-7.07-155.01-8.74-204.51-8.74-599.2c0-394.69,1.67-444.19,8.74-599.2
			c7.06-154.69,31.63-260.33,67.55-352.78c37.14-95.56,86.84-176.61,167.63-257.41c80.8-80.78,161.84-130.48,257.41-167.62
			c92.45-35.93,198.09-60.5,352.78-67.55c155.01-7.08,204.51-8.75,599.2-8.75c394.69,0,444.19,1.67,599.2,8.75
			c154.689,7.05,260.33,31.62,352.78,67.55c95.56,37.14,176.609,86.84,257.409,167.62c80.79,80.8,130.49,161.85,167.63,257.41
			C3538.926,1266.455,3563.495,1372.095,3570.556,1526.785z M3317.445,2125.985c0-388.05-1.49-434.02-8.479-587.26
			c-6.461-141.7-30.141-218.65-50.04-269.86c-26.36-67.83-57.86-116.25-108.71-167.11c-50.86-50.85-99.271-82.34-167.11-108.71
			c-51.21-19.89-128.16-43.57-269.86-50.04c-153.24-6.99-199.21-8.47-587.26-8.47s-434.02,1.48-587.26,8.47
			c-141.7,6.47-218.65,30.15-269.86,50.04c-67.84,26.36-116.25,57.86-167.11,108.71c-50.85,50.86-82.35,99.28-108.71,167.11
			c-19.9,51.21-43.58,128.16-50.05,269.86c-6.99,153.24-8.47,199.21-8.47,587.26s1.48,434.02,8.47,587.26
			c6.47,141.7,30.15,218.65,50.05,269.86c26.36,67.84,57.86,116.25,108.71,167.11c50.86,50.85,99.27,82.35,167.11,108.71
			c51.21,19.899,128.16,43.579,269.86,50.04c153.23,6.989,199.18,8.479,587.26,8.479s434.04-1.49,587.26-8.479
			c141.7-6.461,218.65-30.141,269.86-50.04c67.84-26.36,116.25-57.86,167.11-108.71c50.85-50.86,82.35-99.271,108.71-167.11
			c19.899-51.21,43.579-128.16,50.04-269.86C3315.955,2560.004,3317.445,2514.035,3317.445,2125.985z"/>
		<path fill="#FFFFFF" d="M4251.976,519.485v3213c0,286.71-232.78,519.48-519.49,519.48h-3213
			c-286.71,0-519.49-232.771-519.49-519.48v-3213c0-286.71,232.78-519.48,519.49-519.48h3213
			C4019.195,0.005,4251.976,232.775,4251.976,519.485z M3579.295,2125.985c0-394.69-1.67-444.19-8.739-599.2
			c-7.061-154.69-31.63-260.33-67.551-352.78c-37.14-95.56-86.84-176.61-167.63-257.41c-80.8-80.78-161.85-130.48-257.409-167.62
			c-92.45-35.93-198.091-60.5-352.78-67.55c-155.01-7.08-204.51-8.75-599.2-8.75c-394.69,0-444.19,1.67-599.2,8.75
			c-154.69,7.05-260.33,31.62-352.78,67.55c-95.57,37.14-176.61,86.84-257.41,167.62c-80.79,80.8-130.49,161.85-167.63,257.41
			c-35.92,92.45-60.49,198.09-67.55,352.78c-7.07,155.01-8.74,204.51-8.74,599.2c0,394.69,1.67,444.19,8.74,599.2
			c7.06,154.689,31.63,260.33,67.55,352.78c37.14,95.56,86.84,176.609,167.63,257.409c80.8,80.79,161.84,130.49,257.41,167.63
			c92.45,35.921,198.09,60.49,352.78,67.551c155.01,7.069,204.51,8.739,599.2,8.739c394.69,0,444.19-1.67,599.2-8.739
			c154.689-7.061,260.33-31.63,352.78-67.551c95.56-37.14,176.609-86.84,257.409-167.63c80.79-80.8,130.49-161.85,167.63-257.409
			c35.921-92.45,60.49-198.091,67.551-352.78C3577.625,2570.175,3579.295,2520.675,3579.295,2125.985z"/>
		<path fill="#FFFFFF" d="M3308.966,1538.725c6.989,153.24,8.479,199.21,8.479,587.26s-1.49,434.02-8.479,587.26
			c-6.461,141.7-30.141,218.65-50.04,269.86c-26.36,67.84-57.86,116.25-108.71,167.11c-50.86,50.85-99.271,82.35-167.11,108.71
			c-51.21,19.899-128.16,43.579-269.86,50.04c-153.22,6.989-199.18,8.479-587.26,8.479s-434.03-1.49-587.26-8.479
			c-141.7-6.461-218.65-30.141-269.86-50.04c-67.84-26.36-116.25-57.86-167.11-108.71c-50.85-50.86-82.35-99.271-108.71-167.11
			c-19.9-51.21-43.58-128.16-50.05-269.86c-6.99-153.24-8.47-199.21-8.47-587.26s1.48-434.02,8.47-587.26
			c6.47-141.7,30.15-218.65,50.05-269.86c26.36-67.83,57.86-116.25,108.71-167.11c50.86-50.85,99.27-82.35,167.11-108.71
			c51.21-19.89,128.16-43.57,269.86-50.04c153.24-6.99,199.21-8.47,587.26-8.47s434.02,1.48,587.26,8.47
			c141.7,6.47,218.65,30.15,269.86,50.04c67.84,26.37,116.25,57.86,167.11,108.71c50.85,50.86,82.35,99.28,108.71,167.11
			C3278.825,1320.075,3302.505,1397.025,3308.966,1538.725z M3076.165,1350.205c0-96.31-78.09-174.39-174.399-174.39
			c-96.311,0-174.391,78.08-174.391,174.39c0,96.32,78.08,174.39,174.391,174.39
			C2998.075,1524.595,3076.165,1446.525,3076.165,1350.205z M2872.275,2125.985c0-412.17-334.12-746.3-746.29-746.3
			s-746.29,334.13-746.29,746.3s334.12,746.29,746.29,746.29S2872.275,2538.155,2872.275,2125.985z"/>
		<path fill="#34A5AB" d="M2901.766,1175.815c96.31,0,174.399,78.08,174.399,174.39c0,96.32-78.09,174.39-174.399,174.39
			c-96.311,0-174.391-78.07-174.391-174.39C2727.375,1253.895,2805.455,1175.815,2901.766,1175.815z"/>
		<path fill="#FFFFFF" d="M2125.985,1641.555c267.55,0,484.43,216.88,484.43,484.43s-216.88,484.43-484.43,484.43
			s-484.43-216.88-484.43-484.43S1858.436,1641.555,2125.985,1641.555z"/>
	</g>
	<g>
	</g>
</g>
</svg>
