<?xml version="1.0" encoding="utf-8"?>
<!-- Generator: Adobe Illustrator 16.0.0, SVG Export Plug-In . SVG Version: 6.00 Build 0)  -->
<!DOCTYPE svg PUBLIC "-//W3C//DTD SVG 1.1//EN" "http://www.w3.org/Graphics/SVG/1.1/DTD/svg11.dtd">
<svg version="1.1" id="Layer_1" xmlns:serif="http://www.serif.com/"
	 xmlns="http://www.w3.org/2000/svg" xmlns:xlink="http://www.w3.org/1999/xlink" x="0px" y="0px" width="4251.971px"
	 height="4251.969px" viewBox="0 0 4251.971 4251.969" enable-background="new 0 0 4251.971 4251.969" xml:space="preserve">
<g id="XMLID_1_">
	<g>
		<path fill="#34A5AB" d="M3558.355,1458.545c62.46,233.15,62.46,719.61,62.46,719.61s0,486.45-62.46,719.58
			c-34.37,128.63-135.67,229.96-264.3,264.33c-233.181,62.46-1168.07,62.46-1168.07,62.46s-934.89,0-1168.07-62.46
			c-128.61-34.37-229.92-135.7-264.3-264.33c-62.46-233.13-62.46-719.58-62.46-719.58s0-486.46,62.46-719.61
			c34.38-128.63,135.69-229.93,264.3-264.31c233.18-62.48,1168.07-62.48,1168.07-62.48s934.89,0,1168.07,62.48
			C3422.686,1228.615,3523.985,1329.915,3558.355,1458.545z M1827.005,2626.615l776.73-448.46l-776.73-448.46V2626.615z"/>
		<path fill="#FFFFFF" d="M4251.976,519.485v3213c0,286.71-232.78,519.48-519.49,519.48h-3213
			c-286.71,0-519.49-232.771-519.49-519.48v-3213c0-286.71,232.78-519.48,519.49-519.48h3213
			C4019.195,0.005,4251.976,232.775,4251.976,519.485z M3620.815,2178.155c0,0,0-486.46-62.46-719.61
			c-34.37-128.63-135.67-229.93-264.3-264.31c-233.181-62.48-1168.07-62.48-1168.07-62.48s-934.89,0-1168.07,62.48
			c-128.61,34.38-229.92,135.68-264.3,264.31c-62.46,233.15-62.46,719.61-62.46,719.61s0,486.45,62.46,719.58
			c34.38,128.63,135.69,229.96,264.3,264.33c233.18,62.46,1168.07,62.46,1168.07,62.46s934.89,0,1168.07-62.46
			c128.63-34.37,229.93-135.7,264.3-264.33C3620.815,2664.605,3620.815,2178.155,3620.815,2178.155z"/>
		<polygon fill="#FFFFFF" points="2603.735,2178.155 1827.005,2626.615 1827.005,1729.695 		"/>
	</g>
	<g>
	</g>
</g>
</svg>
